<?xml version="1.0" encoding="iso-8859-1"?>
<!-- Generator: Adobe Illustrator 16.0.0, SVG Export Plug-In . SVG Version: 6.00 Build 0)  -->
<!DOCTYPE svg PUBLIC "-//W3C//DTD SVG 1.1//EN" "http://www.w3.org/Graphics/SVG/1.1/DTD/svg11.dtd">
<svg version="1.1" id="Capa_1" xmlns="http://www.w3.org/2000/svg" xmlns:xlink="http://www.w3.org/1999/xlink" x="0px" y="0px"
	 width="209.551px" height="209.551px" viewBox="0 0 209.551 209.551" style="enable-background:new 0 0 209.551 209.551;"
	 xml:space="preserve">
<g>
	<g>
		<g>
			<path d="M168.632,114.609c22.597,0,40.919-18.316,40.919-40.913c0-22.597-18.322-40.916-40.919-40.916
				S127.719,51.1,127.719,73.696C127.719,96.293,146.036,114.609,168.632,114.609z M166.001,77.101
				c-7.6-2.558-12.781-6.104-12.781-12.994c0-6.248,4.402-11.149,12.002-12.639v-6.747h6.96v6.248
				c4.756,0.219,7.952,1.209,10.297,2.344l-2.064,8.026c-1.845-0.78-5.108-2.421-10.224-2.421c-4.622,0-6.102,1.988-6.102,3.979
				c0,2.338,2.479,3.833,8.519,6.104c8.452,2.986,11.862,6.89,11.862,13.28c0,6.317-4.476,11.709-12.642,13.131v7.246h-6.953v-6.747
				c-4.762-0.213-9.384-1.492-12.075-3.057l2.125-8.305c2.983,1.628,7.173,3.123,11.789,3.123c4.043,0,6.813-1.559,6.813-4.402
				C173.528,80.58,171.256,78.878,166.001,77.101z"/>
			<path d="M120.01,143.996c-14.023,0-25.389-4.543-25.389-10.145v10.145c0,5.614,11.365,10.156,25.389,10.156
				s25.392-4.542,25.392-10.156v-10.145C145.408,139.453,134.034,143.996,120.01,143.996z"/>
			<path d="M120.01,157.222c-14.023,0-25.389-4.549-25.389-10.157v10.157c0,5.607,11.365,10.156,25.389,10.156
				s25.392-4.549,25.392-10.156v-10.157C145.408,152.673,134.034,157.222,120.01,157.222z"/>
			<path d="M120.01,170.435c-14.023,0-25.389-4.542-25.389-10.156v10.156c0,5.614,11.365,10.157,25.389,10.157
				s25.392-4.543,25.392-10.157v-10.156C145.408,165.893,134.034,170.435,120.01,170.435z"/>
			<path d="M120.01,183.654c-14.023,0-25.389-4.548-25.389-10.156v10.156c0,5.608,11.365,10.151,25.389,10.151
				s25.392-4.543,25.392-10.151v-10.156C145.408,179.106,134.034,183.654,120.01,183.654z"/>
			<path d="M120.01,196.874c-14.023,0-25.389-4.543-25.389-10.156v10.156c0,5.614,11.365,10.156,25.389,10.156
				s25.392-4.542,25.392-10.156v-10.156C145.408,192.331,134.034,196.874,120.01,196.874z"/>
			<path d="M120.01,110.542c-14.023,0-25.389,4.555-25.389,10.163v10.156c0,5.608,11.365,10.157,25.389,10.157
				s25.392-4.549,25.392-10.157v-10.156C145.408,115.097,134.034,110.542,120.01,110.542z M120.01,128.316
				c-13.95,0-22.853-4.513-22.853-7.618c0-3.111,8.896-7.623,22.853-7.623s22.853,4.512,22.853,7.623
				C142.863,123.804,133.966,128.316,120.01,128.316z"/>
			<path d="M121.941,119.542c-2.936-0.475-4.147-0.779-4.147-1.267c0-0.414,0.725-0.828,2.972-0.828
				c2.479,0,4.067,0.341,4.969,0.511l1.005-1.668c-1.145-0.237-2.697-0.444-5.005-0.487V114.5h-3.393v1.4
				c-3.689,0.305-5.833,1.327-5.833,2.618c0,1.432,2.521,2.168,6.217,2.697c2.552,0.365,3.653,0.725,3.653,1.285
				c0,0.591-1.346,0.914-3.318,0.914c-2.234,0-4.28-0.311-5.729-0.658l-1.035,1.729c1.309,0.316,3.556,0.585,5.87,0.633v1.395h3.379
				v-1.504c3.971-0.292,6.145-1.413,6.145-2.728C127.713,120.967,126.05,120.15,121.941,119.542z"/>
			<path d="M176.127,170.435c-14.022,0-25.392-4.555-25.392-10.156v10.156c0,5.608,11.369,10.157,25.392,10.157
				c14.023,0,25.393-4.549,25.393-10.157v-10.156C201.526,165.88,190.151,170.435,176.127,170.435z"/>
			<path d="M176.127,183.648c-14.022,0-25.392-4.542-25.392-10.157v10.157c0,5.614,11.369,10.157,25.392,10.157
				c14.023,0,25.393-4.543,25.393-10.157v-10.157C201.526,179.106,190.151,183.648,176.127,183.648z"/>
			<path d="M176.127,196.874c-14.022,0-25.392-4.543-25.392-10.156v10.156c0,5.614,11.369,10.156,25.392,10.156
				c14.023,0,25.393-4.542,25.393-10.156v-10.156C201.526,192.331,190.151,196.874,176.127,196.874z"/>
			<path d="M176.127,136.981c-14.022,0-25.392,4.549-25.392,10.156v10.156c0,5.615,11.369,10.157,25.392,10.157
				c14.023,0,25.393-4.542,25.393-10.157v-10.156C201.526,141.53,190.151,136.981,176.127,136.981z M176.127,154.755
				c-13.95,0-22.853-4.512-22.853-7.617c0-3.117,8.896-7.623,22.853-7.623c13.957,0,22.853,4.506,22.853,7.623
				C198.98,150.243,190.084,154.755,176.127,154.755z"/>
			<path d="M178.058,145.969c-2.935-0.476-4.146-0.779-4.146-1.267c0-0.414,0.725-0.822,2.972-0.822
				c2.478,0,4.067,0.348,4.969,0.506l1.004-1.669c-1.145-0.231-2.697-0.438-5.005-0.487v-1.291h-3.392v1.395
				c-3.69,0.311-5.833,1.328-5.833,2.625c0,1.425,2.521,2.168,6.217,2.691c2.551,0.371,3.653,0.73,3.653,1.291
				c0,0.584-1.346,0.907-3.318,0.907c-2.235,0-4.281-0.305-5.73-0.651l-1.035,1.723c1.31,0.323,3.557,0.591,5.87,0.64v1.395h3.38
				v-1.504c3.97-0.292,6.144-1.413,6.144-2.729C183.831,147.405,182.168,146.59,178.058,145.969z"/>
		</g>
		<g>
			<path d="M71.151,22.231c0,10.878-8.829,23.501-19.705,23.501c-10.884,0-19.713-12.623-19.713-23.501
				c0-10.887,8.829-19.71,19.713-19.71C62.322,2.521,71.151,11.344,71.151,22.231z"/>
			<path d="M119.31,87.02L88.136,55.843c-0.03-0.03-0.082-0.042-0.118-0.073c-0.381-0.369-0.874-0.594-1.322-0.88
				c-0.432-0.268-0.831-0.612-1.297-0.786c-0.045-0.018-0.076-0.055-0.125-0.076c-0.706-0.256-16.486-5.915-30.939-6.628
				l-1.86,3.718h-0.048l5.249,40.879l-6.235,10.893l-6.235-10.893l5.251-40.879h-0.052L48.554,47.4
				c-14.453,0.713-30.236,6.372-30.939,6.628c-0.255,0.095-0.423,0.29-0.661,0.399c-0.511,0.249-0.98,0.518-1.421,0.867
				c-0.381,0.299-0.704,0.618-1.023,0.975c-0.335,0.38-0.624,0.764-0.88,1.208c-0.268,0.463-0.466,0.929-0.636,1.434
				c-0.085,0.268-0.268,0.475-0.335,0.761l-12.47,56.118c-0.935,4.201,1.714,8.36,5.916,9.292c0.569,0.134,1.135,0.195,1.696,0.195
				c3.574,0,6.798-2.479,7.602-6.107l11.505-51.78c0.804-0.25,1.721-0.518,2.71-0.797v53.204l-6.202,77.137
				c-0.414,5.146,3.422,9.658,8.573,10.065c0.256,0.019,0.512,0.03,0.761,0.03c4.826,0,8.921-3.708,9.313-8.604l5.605-69.715
				c1.16,0.512,2.433,0.804,3.772,0.804c1.343,0,2.622-0.292,3.772-0.804l5.608,69.715c0.393,4.896,4.487,8.604,9.313,8.604
				c0.25,0,0.505-0.006,0.761-0.03c5.151-0.407,8.984-4.926,8.574-10.065l-6.205-77.137V66.594c2.165,0.618,3.949,1.172,5.127,1.559
				l29.892,29.892c1.522,1.522,3.514,2.283,5.511,2.283s3.988-0.761,5.511-2.283C122.355,95.002,122.355,90.07,119.31,87.02z"/>
		</g>
	</g>
</g>
<g>
</g>
<g>
</g>
<g>
</g>
<g>
</g>
<g>
</g>
<g>
</g>
<g>
</g>
<g>
</g>
<g>
</g>
<g>
</g>
<g>
</g>
<g>
</g>
<g>
</g>
<g>
</g>
<g>
</g>
</svg>
